<?xml version="1.0" encoding="UTF-8" standalone="no"?>
<svg
   xmlns:dc="http://purl.org/dc/elements/1.1/"
   xmlns:cc="http://creativecommons.org/ns#"
   xmlns:rdf="http://www.w3.org/1999/02/22-rdf-syntax-ns#"
   xmlns:svg="http://www.w3.org/2000/svg"
   xmlns="http://www.w3.org/2000/svg"
   xmlns:sodipodi="http://sodipodi.sourceforge.net/DTD/sodipodi-0.dtd"
   xmlns:inkscape="http://www.inkscape.org/namespaces/inkscape"
   width="1792"
   height="1408.1111"
   viewBox="0 0 1792 1408.1111"
   version="1.1"
   id="svg6"
   sodipodi:docname="comments.svg"
   inkscape:version="0.92.4 (5da689c313, 2019-01-14)">
  <defs
     id="defs10" />
  <sodipodi:namedview
     pagecolor="#ffffff"
     bordercolor="#666666"
     borderopacity="1"
     objecttolerance="10"
     gridtolerance="10"
     guidetolerance="10"
     inkscape:pageopacity="0"
     inkscape:pageshadow="2"
     inkscape:window-width="640"
     inkscape:window-height="480"
     id="namedview8"
     showgrid="false"
     inkscape:zoom="0.13169643"
     inkscape:cx="896"
     inkscape:cy="768.11111"
     inkscape:window-x="0"
     inkscape:window-y="0"
     inkscape:window-maximized="0"
     inkscape:current-layer="svg6" />
  <path
     d="m 1408,512 q 0,139 -94,257 -94,118 -256.5,186.5 Q 895,1024 704,1024 q -86,0 -176,-16 -124,88 -278,128 -36,9 -86,16 h -3 q -11,0 -20.5,-8 -9.5,-8 -11.5,-21 -1,-3 -1,-6.5 0,-3.5 0.5,-6.5 0.5,-3 2,-6 l 2.5,-5 3.5,-5.5 4,-5 4.5,-5 4,-4.5 q 5,-6 23,-25 18,-19 26,-29.5 8,-10.5 22.5,-29 Q 235,977 245.5,957 256,937 266,913 142,841 71,736 0,631 0,512 0,373 94,255 188,137 350.5,68.5 513,0 704,0 895,0 1057.5,68.5 1220,137 1314,255 q 94,118 94,257 z m 384,256 q 0,120 -71,224.5 -71,104.5 -195,176.5 10,24 20.5,44 10.5,20 25,38.5 14.5,18.5 22.5,29 8,10.5 26,29.5 18,19 23,25 1,1 4,4.5 3,3.5 4.5,5 1.5,1.5 4,5 2.5,3.5 3.5,5.5 l 2.5,5 2,6 0.5,6.5 -1,6.5 q -3,14 -13,22 -10,8 -22,7 -50,-7 -86,-16 -154,-40 -278,-128 -90,16 -176,16 -271,0 -472,-132 58,4 88,4 161,0 309,-45 148,-45 264,-129 125,-92 192,-212 67,-120 67,-254 0,-77 -23,-152 129,71 204,178 75,107 75,230 z"
     id="path2"
     inkscape:connector-curvature="0" />
  <metadata
     id="metadata4">
    <rdf:RDF>
      <rdf:Description
         about="https://iconscout.com/legal#licenses"
         dc:title="Comments, Chat, Communication, Text, Bubble, Chatting, Talk"
         dc:description="Comments, Chat, Communication, Text, Bubble, Chatting, Talk"
         dc:publisher="Iconscout"
         dc:date="2016-12-14"
         dc:format="image/svg+xml"
         dc:language="en">
        <dc:creator>
          <rdf:Bag>
            <rdf:li>Font Awesome</rdf:li>
          </rdf:Bag>
        </dc:creator>
      </rdf:Description>
      <cc:Work
         rdf:about="">
        <dc:format>image/svg+xml</dc:format>
        <dc:type
           rdf:resource="http://purl.org/dc/dcmitype/StillImage" />
      </cc:Work>
    </rdf:RDF>
  </metadata>
</svg>
