<?xml version="1.0" encoding="UTF-8" standalone="no"?>
<!-- Generator: Adobe Illustrator 18.1.1, SVG Export Plug-In . SVG Version: 6.00 Build 0)  -->

<svg
   xmlns:dc="http://purl.org/dc/elements/1.1/"
   xmlns:cc="http://creativecommons.org/ns#"
   xmlns:rdf="http://www.w3.org/1999/02/22-rdf-syntax-ns#"
   xmlns:svg="http://www.w3.org/2000/svg"
   xmlns="http://www.w3.org/2000/svg"
   xmlns:sodipodi="http://sodipodi.sourceforge.net/DTD/sodipodi-0.dtd"
   xmlns:inkscape="http://www.inkscape.org/namespaces/inkscape"
   version="1.1"
   id="Capa_1"
   x="0px"
   y="0px"
   viewBox="0 0 45.590706 43.527001"
   xml:space="preserve"
   sodipodi:docname="empty-star.svg"
   width="45.590706"
   height="43.527"
   inkscape:version="0.92.4 (5da689c313, 2019-01-14)"><metadata
   id="metadata43"><rdf:RDF><cc:Work
       rdf:about=""><dc:format>image/svg+xml</dc:format><dc:type
         rdf:resource="http://purl.org/dc/dcmitype/StillImage" /></cc:Work></rdf:RDF></metadata><defs
   id="defs41" /><sodipodi:namedview
   pagecolor="#ffffff"
   bordercolor="#666666"
   borderopacity="1"
   objecttolerance="10"
   gridtolerance="10"
   guidetolerance="10"
   inkscape:pageopacity="0"
   inkscape:pageshadow="2"
   inkscape:window-width="640"
   inkscape:window-height="480"
   id="namedview39"
   showgrid="false"
   inkscape:zoom="5.1764603"
   inkscape:cx="22.795853"
   inkscape:cy="21.7635"
   inkscape:window-x="0"
   inkscape:window-y="0"
   inkscape:window-maximized="0"
   inkscape:current-layer="Capa_1" />
<g
   id="g6"
   transform="translate(3.535796e-4,-1.032)">
	<g
   id="g4">
		<path
   style="fill:#010002"
   d="m 0.902,19.63 11.795,8.569 -4.505,13.866 c -0.286,0.879 -0.05,1.471 0.198,1.812 0.559,0.771 1.663,0.917 2.61,0.228 l 11.795,-8.57 11.795,8.57 c 0.415,0.301 0.839,0.454 1.261,0.454 0.543,0 1.035,-0.249 1.35,-0.682 0.248,-0.342 0.484,-0.934 0.198,-1.812 L 32.893,28.198 44.688,19.629 c 1.129,-0.82 0.916,-1.809 0.824,-2.093 -0.092,-0.284 -0.501,-1.208 -1.896,-1.208 H 29.036 L 24.531,2.462 c -0.432,-1.327 -1.438,-1.43 -1.735,-1.43 -0.298,0 -1.304,0.103 -1.736,1.431 L 16.554,16.329 H 1.974 c -1.396,0 -1.805,0.925 -1.896,1.208 -0.092,0.284 -0.305,1.273 0.824,2.093 z m 15.742,-0.301 c 1.21,0 2.361,-0.836 2.736,-1.988 l 3.416,-10.512 3.416,10.513 c 0.375,1.151 1.525,1.987 2.735,1.987 H 40 l -8.942,6.497 c -0.98,0.712 -1.419,2.065 -1.045,3.216 l 3.416,10.512 -8.942,-6.497 c -0.47,-0.342 -1.071,-0.53 -1.691,-0.53 -0.62,0 -1.221,0.188 -1.691,0.53 l -8.942,6.497 3.416,-10.512 c 0.375,-1.151 -0.065,-2.504 -1.044,-3.216 L 5.593,19.329 c 0,0 11.051,0 11.051,0 z"
   id="path2"
   inkscape:connector-curvature="0" />
	</g>
</g>
<g
   id="g8"
   transform="translate(3.535796e-4,-1.032)">
</g>
<g
   id="g10"
   transform="translate(3.535796e-4,-1.032)">
</g>
<g
   id="g12"
   transform="translate(3.535796e-4,-1.032)">
</g>
<g
   id="g14"
   transform="translate(3.535796e-4,-1.032)">
</g>
<g
   id="g16"
   transform="translate(3.535796e-4,-1.032)">
</g>
<g
   id="g18"
   transform="translate(3.535796e-4,-1.032)">
</g>
<g
   id="g20"
   transform="translate(3.535796e-4,-1.032)">
</g>
<g
   id="g22"
   transform="translate(3.535796e-4,-1.032)">
</g>
<g
   id="g24"
   transform="translate(3.535796e-4,-1.032)">
</g>
<g
   id="g26"
   transform="translate(3.535796e-4,-1.032)">
</g>
<g
   id="g28"
   transform="translate(3.535796e-4,-1.032)">
</g>
<g
   id="g30"
   transform="translate(3.535796e-4,-1.032)">
</g>
<g
   id="g32"
   transform="translate(3.535796e-4,-1.032)">
</g>
<g
   id="g34"
   transform="translate(3.535796e-4,-1.032)">
</g>
<g
   id="g36"
   transform="translate(3.535796e-4,-1.032)">
</g>
</svg>