<?xml version="1.0" encoding="UTF-8" standalone="no"?>
<!-- Generator: Adobe Illustrator 19.0.0, SVG Export Plug-In . SVG Version: 6.00 Build 0)  -->

<svg
   xmlns:dc="http://purl.org/dc/elements/1.1/"
   xmlns:cc="http://creativecommons.org/ns#"
   xmlns:rdf="http://www.w3.org/1999/02/22-rdf-syntax-ns#"
   xmlns:svg="http://www.w3.org/2000/svg"
   xmlns="http://www.w3.org/2000/svg"
   xmlns:sodipodi="http://sodipodi.sourceforge.net/DTD/sodipodi-0.dtd"
   xmlns:inkscape="http://www.inkscape.org/namespaces/inkscape"
   version="1.1"
   id="Capa_1"
   x="0px"
   y="0px"
   viewBox="0 0 469.33401 319.99999"
   xml:space="preserve"
   sodipodi:docname="eye.svg"
   width="469.33401"
   height="320"
   inkscape:version="0.92.4 (5da689c313, 2019-01-14)"><metadata
   id="metadata47"><rdf:RDF><cc:Work
       rdf:about=""><dc:format>image/svg+xml</dc:format><dc:type
         rdf:resource="http://purl.org/dc/dcmitype/StillImage" /></cc:Work></rdf:RDF></metadata><defs
   id="defs45" /><sodipodi:namedview
   pagecolor="#ffffff"
   bordercolor="#666666"
   borderopacity="1"
   objecttolerance="10"
   gridtolerance="10"
   guidetolerance="10"
   inkscape:pageopacity="0"
   inkscape:pageshadow="2"
   inkscape:window-width="640"
   inkscape:window-height="480"
   id="namedview43"
   showgrid="false"
   inkscape:zoom="0.50284126"
   inkscape:cx="234.6665"
   inkscape:cy="160.0005"
   inkscape:window-x="0"
   inkscape:window-y="0"
   inkscape:window-maximized="0"
   inkscape:current-layer="Capa_1" />
<g
   id="g10"
   transform="translate(0,-74.667)">
	<g
   id="g8">
		<g
   id="g6">
			<path
   d="m 234.667,170.667 c -35.307,0 -64,28.693 -64,64 0,35.307 28.693,64 64,64 35.307,0 64,-28.693 64,-64 0,-35.307 -28.694,-64 -64,-64 z"
   id="path2"
   inkscape:connector-curvature="0" />
			<path
   d="M 234.667,74.667 C 128,74.667 36.907,141.013 0,234.667 c 36.907,93.653 128,160 234.667,160 106.773,0 197.76,-66.347 234.667,-160 -36.907,-93.654 -127.894,-160 -234.667,-160 z m 0,266.666 C 175.787,341.333 128,293.546 128,234.666 128,175.786 175.787,128 234.667,128 c 58.88,0 106.667,47.787 106.667,106.667 0,58.88 -47.787,106.666 -106.667,106.666 z"
   id="path4"
   inkscape:connector-curvature="0" />
		</g>
	</g>
</g>
<g
   id="g12"
   transform="translate(0,-74.667)">
</g>
<g
   id="g14"
   transform="translate(0,-74.667)">
</g>
<g
   id="g16"
   transform="translate(0,-74.667)">
</g>
<g
   id="g18"
   transform="translate(0,-74.667)">
</g>
<g
   id="g20"
   transform="translate(0,-74.667)">
</g>
<g
   id="g22"
   transform="translate(0,-74.667)">
</g>
<g
   id="g24"
   transform="translate(0,-74.667)">
</g>
<g
   id="g26"
   transform="translate(0,-74.667)">
</g>
<g
   id="g28"
   transform="translate(0,-74.667)">
</g>
<g
   id="g30"
   transform="translate(0,-74.667)">
</g>
<g
   id="g32"
   transform="translate(0,-74.667)">
</g>
<g
   id="g34"
   transform="translate(0,-74.667)">
</g>
<g
   id="g36"
   transform="translate(0,-74.667)">
</g>
<g
   id="g38"
   transform="translate(0,-74.667)">
</g>
<g
   id="g40"
   transform="translate(0,-74.667)">
</g>
</svg>