<?xml version="1.0" encoding="UTF-8" standalone="no"?>
<!-- Generator: Adobe Illustrator 16.0.0, SVG Export Plug-In . SVG Version: 6.00 Build 0)  -->

<svg
   xmlns:dc="http://purl.org/dc/elements/1.1/"
   xmlns:cc="http://creativecommons.org/ns#"
   xmlns:rdf="http://www.w3.org/1999/02/22-rdf-syntax-ns#"
   xmlns:svg="http://www.w3.org/2000/svg"
   xmlns="http://www.w3.org/2000/svg"
   xmlns:sodipodi="http://sodipodi.sourceforge.net/DTD/sodipodi-0.dtd"
   xmlns:inkscape="http://www.inkscape.org/namespaces/inkscape"
   version="1.1"
   id="Capa_1"
   x="0px"
   y="0px"
   width="475.04318"
   height="453.09"
   viewBox="0 0 475.04318 453.08999"
   xml:space="preserve"
   sodipodi:docname="half-star.svg"
   inkscape:version="0.92.4 (5da689c313, 2019-01-14)"><metadata
   id="metadata41"><rdf:RDF><cc:Work
       rdf:about=""><dc:format>image/svg+xml</dc:format><dc:type
         rdf:resource="http://purl.org/dc/dcmitype/StillImage" /></cc:Work></rdf:RDF></metadata><defs
   id="defs39" /><sodipodi:namedview
   pagecolor="#ffffff"
   bordercolor="#666666"
   borderopacity="1"
   objecttolerance="10"
   gridtolerance="10"
   guidetolerance="10"
   inkscape:pageopacity="0"
   inkscape:pageshadow="2"
   inkscape:window-width="640"
   inkscape:window-height="480"
   id="namedview37"
   showgrid="false"
   inkscape:zoom="0.49679608"
   inkscape:cx="136.6738"
   inkscape:cy="248.28243"
   inkscape:window-x="0"
   inkscape:window-y="0"
   inkscape:window-maximized="0"
   inkscape:current-layer="Capa_1" />
<g
   id="g4"
   transform="translate(-8.1720216e-4,-10.977)">
	<path
   d="m 474.487,183.276 c -1.711,-5.236 -6.852,-8.52 -15.41,-9.851 L 315.754,152.586 251.52,22.681 c -4,-7.804 -8.661,-11.704 -13.989,-11.704 -5.519,0 -10.183,3.9 -13.988,11.704 L 159.302,152.586 15.978,173.425 c -8.564,1.332 -13.704,4.615 -15.415,9.851 -1.709,5.236 0.478,10.898 6.567,16.989 L 111.054,301.333 86.501,444.082 c -0.95,6.286 -0.381,11.173 1.715,14.702 2.092,3.524 5.33,5.283 9.707,5.283 3.237,0 7.043,-1.14 11.42,-3.433 l 128.194,-67.382 128.19,67.382 c 4.377,2.286 8.186,3.433 11.423,3.433 4.381,0 7.622,-1.759 9.709,-5.283 2.088,-3.529 2.659,-8.416 1.708,-14.702 L 364.016,301.333 467.646,200.265 c 6.284,-6.091 8.566,-11.753 6.841,-16.989 z m -135.89,91.789 -13.99,13.421 3.43,18.843 17.128,101.357 -90.786,-47.965 -16.848,-8.856 V 76.927 l 45.395,91.933 8.559,17.128 18.85,2.856 101.642,14.844 z"
   id="path2"
   inkscape:connector-curvature="0" />
</g>
<g
   id="g6"
   transform="translate(-8.1720216e-4,-10.977)">
</g>
<g
   id="g8"
   transform="translate(-8.1720216e-4,-10.977)">
</g>
<g
   id="g10"
   transform="translate(-8.1720216e-4,-10.977)">
</g>
<g
   id="g12"
   transform="translate(-8.1720216e-4,-10.977)">
</g>
<g
   id="g14"
   transform="translate(-8.1720216e-4,-10.977)">
</g>
<g
   id="g16"
   transform="translate(-8.1720216e-4,-10.977)">
</g>
<g
   id="g18"
   transform="translate(-8.1720216e-4,-10.977)">
</g>
<g
   id="g20"
   transform="translate(-8.1720216e-4,-10.977)">
</g>
<g
   id="g22"
   transform="translate(-8.1720216e-4,-10.977)">
</g>
<g
   id="g24"
   transform="translate(-8.1720216e-4,-10.977)">
</g>
<g
   id="g26"
   transform="translate(-8.1720216e-4,-10.977)">
</g>
<g
   id="g28"
   transform="translate(-8.1720216e-4,-10.977)">
</g>
<g
   id="g30"
   transform="translate(-8.1720216e-4,-10.977)">
</g>
<g
   id="g32"
   transform="translate(-8.1720216e-4,-10.977)">
</g>
<g
   id="g34"
   transform="translate(-8.1720216e-4,-10.977)">
</g>
</svg>