<?xml version="1.0" encoding="utf-8"?><svg xmlns="http://www.w3.org/2000/svg" xmlns:xlink="http://www.w3.org/1999/xlink"><symbol viewBox="0 0 45.591 43.527" id="empty-star" xmlns="http://www.w3.org/2000/svg"><path d="M.902 18.598l11.795 8.569-4.505 13.866c-.286.879-.05 1.471.198 1.812.56.771 1.663.917 2.61.228l11.795-8.57 11.795 8.57c.415.301.84.454 1.261.454a1.65 1.65 0 001.35-.682c.248-.342.484-.934.198-1.812l-4.506-13.867 11.795-8.569c1.13-.82.916-1.809.824-2.093-.092-.284-.5-1.208-1.896-1.208h-14.58L24.531 1.43C24.1.103 23.093 0 22.796 0c-.298 0-1.304.103-1.736 1.431l-4.506 13.866H1.974c-1.396 0-1.805.925-1.896 1.208-.092.284-.305 1.273.824 2.093zm15.742-.301c1.21 0 2.361-.836 2.736-1.988l3.416-10.512 3.416 10.513c.375 1.151 1.525 1.987 2.735 1.987H40l-8.942 6.497c-.98.712-1.419 2.065-1.045 3.216l3.416 10.512-8.942-6.497a2.889 2.889 0 00-1.69-.53c-.62 0-1.222.188-1.692.53l-8.942 6.497L15.58 28.01c.375-1.151-.065-2.504-1.044-3.216l-8.942-6.497h11.051z"/></symbol><symbol viewBox="0 0 475.043 453.09" id="half-star" xmlns="http://www.w3.org/2000/svg"><path d="M474.486 172.299c-1.71-5.236-6.852-8.52-15.41-9.851l-143.323-20.839L251.52 11.704C247.52 3.9 242.86 0 237.53 0c-5.519 0-10.183 3.9-13.988 11.704l-64.24 129.905-143.325 20.839c-8.564 1.332-13.704 4.615-15.415 9.851-1.709 5.236.478 10.898 6.567 16.989l103.924 101.068L86.5 433.105c-.95 6.286-.38 11.173 1.715 14.702 2.092 3.524 5.33 5.283 9.707 5.283 3.237 0 7.043-1.14 11.42-3.433l128.194-67.382 128.19 67.382c4.377 2.286 8.186 3.433 11.423 3.433 4.381 0 7.622-1.759 9.71-5.283 2.087-3.529 2.658-8.416 1.707-14.702l-24.55-142.749 103.63-101.068c6.283-6.091 8.565-11.753 6.84-16.989zm-135.89 91.789l-13.99 13.421 3.43 18.843 17.128 101.357-90.786-47.965-16.848-8.856V65.95l45.395 91.933 8.56 17.128 18.85 2.856 101.641 14.844z"/></symbol><symbol viewBox="0 0 208 24" id="logo" xmlns="http://www.w3.org/2000/svg"><path d="M33.966 11.004V21h2.198v-4.312h4.046V21h2.198v-9.996H40.21v3.836h-4.046v-3.836h-2.198zm12.477 0V21h7.588v-1.848h-5.39v-2.45h4.844v-1.708h-4.844v-2.142h5.278v-1.848h-7.476zm13.698 6.132l1.302-3.668h.028l1.26 3.668h-2.59zm.21-6.132L56.571 21h2.212l.784-2.226h3.738L64.061 21h2.282l-3.738-9.996h-2.254zm8.954 0V21h7.07v-1.848h-4.872v-8.148h-2.198zm11.325 1.848V21h2.199v-8.148h2.996v-1.848h-8.19v1.848h2.996zm8.447-1.848V21h2.198v-4.312h4.046V21h2.198v-9.996h-2.198v3.836h-4.046v-3.836h-2.198zm15.067 6.104V21h2.198v-3.836l3.71-6.16h-2.45l-2.324 3.948-2.338-3.948h-2.464l3.668 6.104zm16.343.574h-2.128c-.01.616.102 1.148.336 1.596.233.448.546.817.938 1.106.401.29.858.5 1.372.63a6.19 6.19 0 001.61.21c.681 0 1.278-.08 1.792-.238.522-.159.956-.378 1.302-.658.354-.29.62-.63.798-1.022a3.06 3.06 0 00.266-1.274c0-.56-.122-1.017-.364-1.372a2.892 2.892 0 00-.84-.868 3.535 3.535 0 00-.994-.462 8.004 8.004 0 00-.77-.21 271.08 271.08 0 01-1.526-.392 5.962 5.962 0 01-.91-.308c-.215-.103-.36-.215-.434-.336a.895.895 0 01-.112-.476c0-.215.046-.392.14-.532.093-.14.21-.257.35-.35a1.49 1.49 0 01.49-.196c.177-.037.354-.056.532-.056.27 0 .518.023.742.07.233.047.438.126.616.238.177.112.317.266.42.462.112.196.177.443.196.742h2.128c0-.579-.112-1.069-.336-1.47a2.793 2.793 0 00-.882-1.008 3.661 3.661 0 00-1.288-.56 6.048 6.048 0 00-1.498-.182c-.448 0-.896.06-1.344.182-.448.121-.85.308-1.204.56-.355.252-.644.57-.868.952-.215.373-.322.817-.322 1.33 0 .457.084.85.252 1.176.177.317.406.583.686.798.28.215.597.392.952.532.354.13.718.243 1.092.336.364.103.723.196 1.078.28.354.084.672.182.952.294.28.112.504.252.672.42a.866.866 0 01.266.658 1 1 0 01-.196.63 1.412 1.412 0 01-.49.378 2.36 2.36 0 01-.63.196 5.095 5.095 0 01-.63.042c-.29 0-.57-.033-.84-.098a2.374 2.374 0 01-.714-.322 1.685 1.685 0 01-.476-.574c-.122-.233-.182-.518-.182-.854zM139.7 21l2.688-9.996h-2.156l-1.638 6.888h-.028l-1.708-6.888H134.8l-1.736 6.804h-.028l-1.582-6.804h-2.198L131.902 21h2.226l1.666-6.804h.028L137.516 21h2.184zm5.801-9.996V21h2.198v-9.996h-2.198zm8.441 1.848V21h2.198v-8.148h2.996v-1.848h-8.19v1.848h2.996zm15.111 1.512h2.128a4.04 4.04 0 00-.476-1.54 3.62 3.62 0 00-.966-1.12 4.06 4.06 0 00-1.316-.7 4.976 4.976 0 00-1.554-.238c-.766 0-1.456.135-2.072.406a4.43 4.43 0 00-1.54 1.12 4.981 4.981 0 00-.966 1.68 6.185 6.185 0 00-.336 2.072c0 .728.112 1.41.336 2.044a4.88 4.88 0 00.966 1.638c.42.467.933.835 1.54 1.106.616.261 1.306.392 2.072.392.616 0 1.18-.093 1.694-.28a3.934 3.934 0 001.344-.812c.382-.355.69-.784.924-1.288a5.09 5.09 0 00.434-1.694h-2.128c-.084.672-.318 1.213-.7 1.624-.374.41-.896.616-1.568.616-.495 0-.915-.093-1.26-.28a2.457 2.457 0 01-.84-.77 3.413 3.413 0 01-.476-1.064 5.692 5.692 0 010-2.506c.102-.41.261-.775.476-1.092.214-.327.494-.583.84-.77.345-.196.765-.294 1.26-.294.27 0 .527.047.77.14a2.125 2.125 0 011.162.924c.13.205.214.434.252.686zm5.813-3.36V21h2.198v-4.312h4.046V21h2.198v-9.996h-2.198v3.836h-4.046v-3.836h-2.198zm12.477 0V21h7.588v-1.848h-5.39v-2.45h4.844v-1.708h-4.844v-2.142h5.278v-1.848h-7.476zm13.376 4.522v-2.814h2.408c.504 0 .882.112 1.134.336.252.215.378.565.378 1.05 0 .504-.126.868-.378 1.092-.252.224-.63.336-1.134.336h-2.408zm-2.198-4.522V21h2.198v-3.906h2.198c.55 0 .947.121 1.19.364.242.243.401.625.476 1.148.056.401.098.821.126 1.26.028.439.102.817.224 1.134h2.198a1.57 1.57 0 01-.238-.504 6.499 6.499 0 01-.112-.644 15.437 15.437 0 01-.042-.658c-.01-.215-.019-.401-.028-.56a5.326 5.326 0 00-.112-.756 2.304 2.304 0 00-.238-.686 1.788 1.788 0 00-.434-.546 1.655 1.655 0 00-.672-.35v-.028c.56-.224.961-.55 1.204-.98.252-.43.378-.938.378-1.526 0-.383-.07-.737-.21-1.064a2.45 2.45 0 00-.588-.882 2.614 2.614 0 00-.924-.588 3.078 3.078 0 00-1.204-.224h-5.39z"/><g clip-path="url(#cclip0)"><path d="M17.098 8.165H7.902C3.538 8.165 0 11.709 0 16.082 0 20.455 3.538 24 7.902 24h9.196C21.462 24 25 20.455 25 16.082s-3.538-7.917-7.902-7.917zm-.172 14.927c-3.862 0-6.994-3.138-6.994-7.009 0-3.87 3.132-7.009 6.994-7.009 3.863 0 6.994 3.139 6.994 7.01 0 3.87-3.132 7.008-6.994 7.008zm-.921-18.408a5.6 5.6 0 00.712 2.744 4.694 4.694 0 01-3.805-5.481 4.68 4.68 0 013.613.374 5.592 5.592 0 00-.52 2.363zM22.207 2.8c0 2.12-1.4 3.911-3.324 4.496-.331.1-.676.166-1.034.19h-.002a4.684 4.684 0 01-.922-2.802A4.685 4.685 0 0121.285 0a4.69 4.69 0 01.922 2.8z"/></g><defs><clipPath id="cclip0"><path d="M0 0h25v24H0z"/></clipPath></defs></symbol><symbol viewBox="0 0 384 384" id="phone" xmlns="http://www.w3.org/2000/svg"><path d="M353.188 252.052c-23.51 0-46.594-3.677-68.469-10.906-10.719-3.656-23.896-.302-30.438 6.417l-43.177 32.594c-50.073-26.729-80.917-57.563-107.281-107.26l31.635-42.052c8.219-8.208 11.167-20.198 7.635-31.448-7.26-21.99-10.948-45.063-10.948-68.583C132.146 13.823 118.323 0 101.333 0h-70.52C13.823 0 0 13.823 0 30.813 0 225.563 158.438 384 353.188 384c16.99 0 30.813-13.823 30.813-30.813v-70.323c-.001-16.989-13.824-30.812-30.813-30.812z"/></symbol><symbol viewBox="0 -22 512 511" id="share" xmlns="http://www.w3.org/2000/svg"><path d="M512 233.82L299.223.5v139.203h-45.239C113.711 139.703 0 253.414 0 393.687v73.77l20.094-22.02a360.573 360.573 0 01266.324-117.5h12.805v139.204zm0 0"/></symbol><symbol viewBox="0 0 0 0" id="sprite" xmlns="http://www.w3.org/2000/svg"/><symbol viewBox="0 -10 511.988 489.703" id="star" xmlns="http://www.w3.org/2000/svg"><path d="M510.652 174.917a27.158 27.158 0 00-23.425-18.711l-147.774-13.418L281.02 6.018c-4.308-10.023-14.12-16.511-25.023-16.511-10.902 0-20.715 6.488-25.023 16.535L172.54 142.788 24.743 156.206a27.208 27.208 0 00-23.402 18.71c-3.371 10.368-.258 21.739 7.957 28.907l111.699 97.96-32.937 145.09c-2.41 10.669 1.73 21.696 10.582 28.095 4.757 3.437 10.324 5.187 15.937 5.187 4.84 0 9.64-1.305 13.95-3.883l127.468-76.183 127.422 76.183c9.324 5.61 21.078 5.098 29.91-1.304a27.223 27.223 0 0010.582-28.094l-32.937-145.09 111.699-97.941a27.224 27.224 0 007.98-28.926zm0 0"/></symbol><symbol viewBox="0 -60 512.001 391.179" id="telegram" xmlns="http://www.w3.org/2000/svg"><path d="M507.775-53.207c-5.016-6.11-13.332-8.375-20.727-5.656L17.392 110.859C8.009 114.27 1.423 122.54.2 132.441c-1.21 9.856 3.133 19.418 11.282 24.922l67.132 45.828a21.13 21.13 0 0021.832 1.242l145.625-76.793-113.496 84.747c-5.328 3.98-8.511 10.328-8.511 16.976v78.5c0 8.098 4.441 15.516 11.59 19.367a22.028 22.028 0 0022.609-1.015l51.004-33.832 50.156 34.199c4.395 3.012 9.629 4.597 14.91 4.597a26.28 26.28 0 005.344-.55c7.043-1.469 13.273-5.82 17.098-11.938L509.263-31.692c4.137-6.746 3.543-15.379-1.488-21.515zm0 0"/></symbol><symbol viewBox="0 0 980 980" id="watch-later" xmlns="http://www.w3.org/2000/svg"><path d="M518.7 474.7V260.2c0-16.5-13.7-30.5-30.6-30.5-17 0-30.6 13.6-30.6 30.5v245.3c0 8.3 3.4 15.9 8.9 21.4 5.6 5.7 13.2 9.1 21.6 9.1h183.9c16.7 0 30.5-13.7 30.5-30.6 0-17-13.7-30.6-30.5-30.6zM490 980C219.4 980 0 760.6 0 490S219.4 0 490 0s490 219.4 490 490-219.4 490-490 490z"/></symbol></svg>