<?xml version="1.0" encoding="UTF-8" standalone="no"?>
<svg
   xmlns:dc="http://purl.org/dc/elements/1.1/"
   xmlns:cc="http://creativecommons.org/ns#"
   xmlns:rdf="http://www.w3.org/1999/02/22-rdf-syntax-ns#"
   xmlns:svg="http://www.w3.org/2000/svg"
   xmlns="http://www.w3.org/2000/svg"
   xmlns:sodipodi="http://sodipodi.sourceforge.net/DTD/sodipodi-0.dtd"
   xmlns:inkscape="http://www.inkscape.org/namespaces/inkscape"
   height="489.7027pt"
   viewBox="0 -10 511.98792 489.7027"
   width="511.00107pt"
   version="1.1"
   id="svg4"
   sodipodi:docname="star.svg"
   inkscape:version="0.92.4 (5da689c313, 2019-01-14)">
  <metadata
     id="metadata10">
    <rdf:RDF>
      <cc:Work
         rdf:about="">
        <dc:format>image/svg+xml</dc:format>
        <dc:type
           rdf:resource="http://purl.org/dc/dcmitype/StillImage" />
      </cc:Work>
    </rdf:RDF>
  </metadata>
  <defs
     id="defs8" />
  <sodipodi:namedview
     pagecolor="#ffffff"
     bordercolor="#666666"
     borderopacity="1"
     objecttolerance="10"
     gridtolerance="10"
     guidetolerance="10"
     inkscape:pageopacity="0"
     inkscape:pageshadow="2"
     inkscape:window-width="640"
     inkscape:window-height="480"
     id="namedview6"
     showgrid="false"
     inkscape:zoom="0.34637965"
     inkscape:cx="340.66658"
     inkscape:cy="322.94876"
     inkscape:window-x="0"
     inkscape:window-y="0"
     inkscape:window-maximized="0"
     inkscape:current-layer="svg4" />
  <path
     d="M 510.65228,174.91673 C 507.30072,164.54955 498.10541,157.18626 487.2265,156.2058 L 339.45306,142.78783 281.01947,6.018293 c -4.30859,-10.023437 -14.12109,-16.511718 -25.02344,-16.511718 -10.90234,0 -20.71484,6.488281 -25.02343,16.535156 L 172.539,142.78783 24.742123,156.2058 c -10.859376,1.0039 -20.0312498,8.34375 -23.4023438,18.71093 -3.371094,10.36719 -0.257813,21.73828 7.957031,28.90625 L 120.99603,301.78392 88.058529,446.87376 c -2.410156,10.66797 1.730468,21.69532 10.582031,28.09375 4.75782,3.4375 10.32422,5.1875 15.93751,5.1875 4.83984,0 9.64062,-1.30468 13.94921,-3.88281 l 127.46875,-76.18359 127.42188,76.18359 c 9.32422,5.60938 21.07812,5.09766 29.91015,-1.30469 8.85547,-6.41796 12.99219,-17.44921 10.58204,-28.09375 L 390.9726,301.78392 502.67181,203.84251 c 8.21485,-7.1875 11.35157,-18.53906 7.98047,-28.92578 z m 0,0"
     id="path2"
     inkscape:connector-curvature="0"
     style="fill:#ffc107" />
</svg>
