<?xml version="1.0" encoding="UTF-8" standalone="no"?>
<!-- Svg Vector Icons : http://www.onlinewebfonts.com/icon -->

<svg
   xmlns:dc="http://purl.org/dc/elements/1.1/"
   xmlns:cc="http://creativecommons.org/ns#"
   xmlns:rdf="http://www.w3.org/1999/02/22-rdf-syntax-ns#"
   xmlns:svg="http://www.w3.org/2000/svg"
   xmlns="http://www.w3.org/2000/svg"
   xmlns:sodipodi="http://sodipodi.sourceforge.net/DTD/sodipodi-0.dtd"
   xmlns:inkscape="http://www.inkscape.org/namespaces/inkscape"
   version="1.1"
   x="0px"
   y="0px"
   viewBox="0 0 980 980"
   enable-background="new 0 0 1000 1000"
   xml:space="preserve"
   id="svg8"
   sodipodi:docname="3eba96b29f1deb711763d9026263d694.svg"
   width="980"
   height="980"
   inkscape:version="0.92.4 (5da689c313, 2019-01-14)"><defs
   id="defs12" /><sodipodi:namedview
   pagecolor="#ffffff"
   bordercolor="#666666"
   borderopacity="1"
   objecttolerance="10"
   gridtolerance="10"
   guidetolerance="10"
   inkscape:pageopacity="0"
   inkscape:pageshadow="2"
   inkscape:window-width="640"
   inkscape:window-height="480"
   id="namedview10"
   showgrid="false"
   inkscape:zoom="0.236"
   inkscape:cx="490"
   inkscape:cy="490"
   inkscape:window-x="0"
   inkscape:window-y="0"
   inkscape:window-maximized="0"
   inkscape:current-layer="svg8" />
<metadata
   id="metadata2"> Svg Vector Icons : http://www.onlinewebfonts.com/icon <rdf:RDF><cc:Work
     rdf:about=""><dc:format>image/svg+xml</dc:format><dc:type
       rdf:resource="http://purl.org/dc/dcmitype/StillImage" /></cc:Work></rdf:RDF></metadata>
<g
   id="g6"
   transform="translate(-10,-10)"><path
     d="M 528.7,484.7 V 270.2 c 0,-16.5 -13.7,-30.5 -30.6,-30.5 -17,0 -30.6,13.6 -30.6,30.5 v 245.3 c 0,8.3 3.4,15.9 8.9,21.4 5.6,5.7 13.2,9.1 21.6,9.1 h 183.9 c 16.7,0 30.5,-13.7 30.5,-30.6 0,-17 -13.7,-30.6 -30.5,-30.6 z M 500,990 C 229.4,990 10,770.6 10,500 10,229.4 229.4,10 500,10 770.6,10 990,229.4 990,500 990,770.6 770.6,990 500,990 Z"
     id="path4"
     inkscape:connector-curvature="0" /></g>
</svg>